<svg height="633.48" width="633.48" xml:space="preserve" xmlns="http://www.w3.org/2000/svg">
    <path d="M540.709 92.77C480.885 32.945 401.344 0 316.74 0S152.595 32.945 92.771 92.77C32.947 152.595 0 232.135 0 316.74c0 84.604 32.946 164.144 92.771 223.968 59.824 59.824 139.365 92.772 223.969 92.772s164.145-32.948 223.969-92.772S633.48 401.344 633.48 316.74c0-84.605-32.946-164.145-92.771-223.97zm72.242 223.97c0 65.002-21.063 125.168-56.701 174.067-1.075-1.901-3.123-3.17-5.466-3.093l-37.202 1.24a283.792 283.792 0 0 1-15.146-18.763l30.31 3.958c3.339.436 6.416-1.919 6.865-5.255a6.067 6.067 0 0 0-5.233-6.834l-41.392-5.404a283.469 283.469 0 0 1-7.674-12.39l27.626 6.993a6.126 6.126 0 0 0 7.434-4.407 6.067 6.067 0 0 0-4.395-7.403l-38.602-9.775a282.681 282.681 0 0 1-7.966-17.104l28.778 11a6.12 6.12 0 0 0 7.894-3.511 6.076 6.076 0 0 0-3.501-7.868l-39.18-14.979a280.926 280.926 0 0 1-4.439-13.464l26.498 13.83a6.118 6.118 0 0 0 8.243-2.577 6.08 6.08 0 0 0-2.572-8.223l-36.498-19.052a281.427 281.427 0 0 1-2.956-13.885l24.555 16.635a6.113 6.113 0 0 0 8.479-1.621 6.087 6.087 0 0 0-1.618-8.467l-33.986-23.023a285.036 285.036 0 0 1-1.455-14.375l22.835 19.573a6.106 6.106 0 0 0 8.604-.656 6.087 6.087 0 0 0-.652-8.595L442.9 306.275a286.6 286.6 0 0 1 .149-14.979l19.116 20.535a6.102 6.102 0 0 0 8.622.312 6.092 6.092 0 0 0 .312-8.618l-26.955-28.958a285.671 285.671 0 0 1 1.897-15.309l17.211 23.253c2.002 2.707 5.824 3.276 8.532 1.271s3.279-5.822 1.274-8.531l-24.039-32.476a285.496 285.496 0 0 1 4.281-17.508l14.698 25.418a6.095 6.095 0 0 0 8.333 2.223 6.104 6.104 0 0 0 2.227-8.337l-20.34-35.174a281.328 281.328 0 0 1 6.527-17.192l11.554 26.569a6.087 6.087 0 0 0 8.023 3.153 6.105 6.105 0 0 0 3.161-8.03l-15.96-36.703a280.55 280.55 0 0 1 7.564-14.412l8.279 27.303a6.084 6.084 0 0 0 7.605 4.056 6.11 6.11 0 0 0 4.066-7.615l-11.478-37.852a280.412 280.412 0 0 1 9.275-13.59l4.749 26.576a6.08 6.08 0 0 0 7.076 4.914 6.115 6.115 0 0 0 4.932-7.088l-6.682-37.401a280.233 280.233 0 0 1 7.386-8.63l1.491 25.988a6.076 6.076 0 0 0 6.441 5.717 6.117 6.117 0 0 0 5.741-6.453l-1.793-31.243c53.589 53.634 86.776 127.651 86.776 209.276zm-74.987 196.743a289.255 289.255 0 0 1-13.335-12.691l24.691-.825a296.902 296.902 0 0 1-11.356 13.516zM106.271 108.527l-1.733 30.184a6.119 6.119 0 0 0 5.742 6.453 6.073 6.073 0 0 0 6.44-5.717l1.492-25.988a277.486 277.486 0 0 1 7.386 8.63l-6.683 37.401a6.115 6.115 0 0 0 4.932 7.088 6.081 6.081 0 0 0 7.077-4.914l4.748-26.576a279.66 279.66 0 0 1 9.275 13.59l-11.478 37.852a6.11 6.11 0 0 0 4.067 7.615 6.082 6.082 0 0 0 7.604-4.056l8.28-27.303a282.487 282.487 0 0 1 7.563 14.409l-15.961 36.706a6.104 6.104 0 0 0 3.162 8.03 6.088 6.088 0 0 0 8.024-3.153l11.553-26.569a283.984 283.984 0 0 1 6.527 17.189l-20.34 35.177a6.103 6.103 0 0 0 2.227 8.337 6.094 6.094 0 0 0 8.332-2.223l14.7-25.418a286.236 286.236 0 0 1 4.282 17.508l-24.04 32.476a6.097 6.097 0 0 0 1.274 8.531 6.1 6.1 0 0 0 8.532-1.271l17.211-23.253a285.545 285.545 0 0 1 1.897 15.309l-26.957 28.958a6.094 6.094 0 0 0 .314 8.618 6.103 6.103 0 0 0 8.622-.312l19.115-20.535c.183 4.989.23 9.984.151 14.979l-31.539 27.037a6.088 6.088 0 0 0-.654 8.595 6.107 6.107 0 0 0 8.606.656l22.835-19.576c-.359 4.8-.851 9.592-1.455 14.378l-33.986 23.023a6.085 6.085 0 0 0-1.618 8.467 6.113 6.113 0 0 0 8.479 1.621l24.555-16.635a283.567 283.567 0 0 1-2.955 13.885l-36.5 19.052a6.079 6.079 0 0 0-2.571 8.223 6.118 6.118 0 0 0 8.243 2.577l26.498-13.83a279.7 279.7 0 0 1-4.438 13.461l-39.181 14.981a6.073 6.073 0 0 0-3.501 7.868 6.12 6.12 0 0 0 7.893 3.511l28.779-11a282.681 282.681 0 0 1-7.966 17.104l-38.603 9.775a6.068 6.068 0 0 0-4.395 7.403 6.124 6.124 0 0 0 7.432 4.407l27.629-6.993a284.436 284.436 0 0 1-7.674 12.39l-41.393 5.404a6.066 6.066 0 0 0-5.234 6.834c.449 3.336 3.524 5.69 6.865 5.255l30.31-3.958a285.164 285.164 0 0 1-15.146 18.763l-37.202-1.24a6.047 6.047 0 0 0-5.014 2.383C41.388 441.326 20.53 381.428 20.53 316.74c0-81.094 32.765-154.67 85.741-208.213zM84.189 500.001l23.689.791a290.03 290.03 0 0 1-12.798 12.202 297.11 297.11 0 0 1-10.891-12.993zm21.911 24.777a303.842 303.842 0 0 0 14.106-13.516l-.744 26.229c-4.584-4.1-9.04-8.34-13.362-12.713zm22.78 20.809c1.574-1.056 2.64-2.818 2.697-4.861l1.224-43.161a301.204 301.204 0 0 0 11.671-14.36l3.327 24.65a6.129 6.129 0 0 0 6.865 5.256 6.068 6.068 0 0 0 5.234-6.834l-5.059-37.473.067-.098a297.838 297.838 0 0 0 9.619-15.294l6.722 26.137c.84 3.266 4.166 5.239 7.433 4.411s5.234-4.142 4.395-7.403l-9.97-38.771a297.364 297.364 0 0 0 6.994-14.636l8.857 22.95a6.123 6.123 0 0 0 7.895 3.514 6.078 6.078 0 0 0 3.501-7.87L186.82 406.68a297.144 297.144 0 0 0 5.229-15.186l11.88 22.623a6.115 6.115 0 0 0 8.244 2.578 6.078 6.078 0 0 0 2.57-8.22l-17.885-34.062a300.42 300.42 0 0 0 3.303-14.867l14.518 21.343a6.113 6.113 0 0 0 8.48 1.621 6.084 6.084 0 0 0 1.62-8.463l-21.721-31.932c.659-4.86 1.186-9.734 1.605-14.615l16.57 19.281a6.106 6.106 0 0 0 8.606.655 6.088 6.088 0 0 0 .654-8.595l-24.832-28.893c.17-6.255.148-12.513-.072-18.762l20.07 18.656a6.103 6.103 0 0 0 8.623-.31 6.095 6.095 0 0 0-.312-8.618l-29.521-27.443c-.47-4.98-1.071-9.946-1.787-14.901l21.323 15.781a6.095 6.095 0 0 0 8.532-1.271 6.096 6.096 0 0 0-1.275-8.529l-31.615-23.399a299.474 299.474 0 0 0-4.206-17.763l22.536 13.046a6.097 6.097 0 0 0 8.334-2.22 6.106 6.106 0 0 0-2.228-8.338l-33.8-19.569a299.553 299.553 0 0 0-6.79-18.31l24.206 10.56a6.09 6.09 0 0 0 8.024-3.153 6.107 6.107 0 0 0-3.16-8.031l-36.415-15.884a296.2 296.2 0 0 0-7.887-15.242l25.686 7.836c3.224.985 6.627-.831 7.605-4.053s-.844-6.633-4.067-7.615l-38.489-11.746a298.756 298.756 0 0 0-10.652-15.603l27.993 5.072a6.085 6.085 0 0 0 7.077-4.918c.593-3.313-1.616-6.487-4.932-7.089l-41.388-7.495a298.833 298.833 0 0 0-8.373-9.648l29.333 1.772c3.365.203 6.248-2.357 6.441-5.72s-2.377-6.252-5.741-6.455l-30.862-1.861c51.306-42.57 117.148-68.196 188.867-68.196 71.688 0 137.505 25.604 188.8 68.142l-31.768 1.916c-3.364.203-5.936 3.093-5.743 6.455s3.076 5.923 6.441 5.72l29.335-1.772a301.166 301.166 0 0 0-8.373 9.648l-41.39 7.495a6.12 6.12 0 0 0-4.932 7.089 6.086 6.086 0 0 0 7.077 4.918l27.994-5.072a297.718 297.718 0 0 0-10.652 15.603l-38.49 11.746a6.11 6.11 0 0 0-4.065 7.615 6.085 6.085 0 0 0 7.605 4.053l25.687-7.836a296.245 296.245 0 0 0-7.888 15.242l-36.415 15.884a6.106 6.106 0 0 0-3.16 8.031 6.092 6.092 0 0 0 8.025 3.153l24.206-10.56a299.297 299.297 0 0 0-6.789 18.31l-33.802 19.569a6.106 6.106 0 0 0-2.227 8.338 6.095 6.095 0 0 0 8.333 2.22l22.537-13.049a300.92 300.92 0 0 0-4.206 17.766l-31.616 23.399a6.096 6.096 0 0 0-1.274 8.529 6.095 6.095 0 0 0 8.532 1.271l21.322-15.781a303.288 303.288 0 0 0-1.787 14.901l-29.521 27.443a6.094 6.094 0 0 0-.313 8.618 6.106 6.106 0 0 0 8.625.31l20.07-18.656a300.141 300.141 0 0 0-.07 18.762l-24.833 28.893a6.09 6.09 0 0 0 .653 8.595 6.11 6.11 0 0 0 8.608-.655l16.571-19.281c.418 4.878.945 9.752 1.604 14.615l-21.721 31.932a6.084 6.084 0 0 0 1.618 8.463 6.114 6.114 0 0 0 8.481-1.621l14.518-21.346a298.908 298.908 0 0 0 3.304 14.87l-17.886 34.062a6.079 6.079 0 0 0 2.571 8.22 6.116 6.116 0 0 0 8.244-2.578l11.88-22.626a298.173 298.173 0 0 0 5.228 15.188l-13.532 35.064a6.076 6.076 0 0 0 3.501 7.87 6.123 6.123 0 0 0 7.895-3.514l8.857-22.953a296.067 296.067 0 0 0 6.994 14.636l-9.97 38.773a6.071 6.071 0 0 0 4.394 7.403 6.126 6.126 0 0 0 7.434-4.411l6.722-26.14a298.629 298.629 0 0 0 9.62 15.297c.021.031.045.063.066.095l-5.06 37.476a6.067 6.067 0 0 0 5.234 6.834 6.13 6.13 0 0 0 6.865-5.256l3.327-24.65c3.746 4.914 7.641 9.7 11.671 14.36l1.223 43.161c.066 2.279 1.387 4.201 3.27 5.185-51.099 41.874-116.393 67.04-187.458 67.04-71.25 0-136.702-25.292-187.86-67.363zm384.189-7.253-.768-27.068a304.213 304.213 0 0 0 14.621 13.98 298.779 298.779 0 0 1-13.853 13.088z"/>
</svg>
